HIERARCHY
ROOT Hips
{
	OFFSET 0.00000 0.00000 0.00000
	CHANNELS 6 Xposition Yposition Zposition Zrotation Yrotation Xrotation 
	JOINT LHipJoint
	{
		OFFSET 0 0 0
		CHANNELS 3 Zrotation Yrotation Xrotation
		JOINT LeftUpLeg
		{
			OFFSET 1.28858 -1.83292 1.03970
			CHANNELS 3 Zrotation Yrotation Xrotation
			JOINT LeftLeg
			{
				OFFSET 2.47846 -6.80952 0.00000
				CHANNELS 3 Zrotation Yrotation Xrotation
				JOINT LeftFoot
				{
					OFFSET 2.75274 -7.56311 0.00000
					CHANNELS 3 Zrotation Yrotation Xrotation
					JOINT LeftToeBase
					{
						OFFSET 0.12848 -0.35301 1.68223
						CHANNELS 3 Zrotation Yrotation Xrotation
						End Site
						{
							OFFSET 0.00000 -0.00000 0.87311
						}
					}
				}
			}
		}
	}
	JOINT RHipJoint
	{
		OFFSET 0 0 0
		CHANNELS 3 Zrotation Yrotation Xrotation
		JOINT RightUpLeg
		{
			OFFSET -1.31183 -1.83292 1.03970
			CHANNELS 3 Zrotation Yrotation Xrotation
			JOINT RightLeg
			{
				OFFSET -2.44740 -6.72417 0.00000
				CHANNELS 3 Zrotation Yrotation Xrotation
				JOINT RightFoot
				{
					OFFSET -2.67343 -7.34519 0.00000
					CHANNELS 3 Zrotation Yrotation Xrotation
					JOINT RightToeBase
					{
						OFFSET -0.16914 -0.46471 1.77626
						CHANNELS 3 Zrotation Yrotation Xrotation
						End Site
						{
							OFFSET -0.00000 -0.00000 0.92777
						}
					}
				}
			}
		}
	}
	JOINT LowerBack
	{
		OFFSET 0 0 0
		CHANNELS 3 Zrotation Yrotation Xrotation
		JOINT Spine
		{
			OFFSET 0.01249 2.14252 0.03842
			CHANNELS 3 Zrotation Yrotation Xrotation
			JOINT Spine1
			{
				OFFSET -0.02957 2.14199 -0.03751
				CHANNELS 3 Zrotation Yrotation Xrotation
				JOINT Neck
				{
					OFFSET 0 0 0
					CHANNELS 3 Zrotation Yrotation Xrotation
					JOINT Neck1
					{
						OFFSET -0.01678 1.65709 -0.05476
						CHANNELS 3 Zrotation Yrotation Xrotation
						JOINT Head
						{
							OFFSET 0.07912 1.58331 -0.11843
							CHANNELS 3 Zrotation Yrotation Xrotation
							End Site
							{
								OFFSET 0.03298 1.73940 -0.04271
							}
						}
					}
				}
				JOINT LeftShoulder
				{
					OFFSET 0 0 0
					CHANNELS 3 Zrotation Yrotation Xrotation
					JOINT LeftArm
					{
						OFFSET 3.39556 1.16496 0.08673
						CHANNELS 3 Zrotation Yrotation Xrotation
						JOINT LeftForeArm
						{
							OFFSET 5.23910 -0.00000 -0.00000
							CHANNELS 3 Zrotation Yrotation Xrotation
							JOINT LeftHand
							{
								OFFSET 3.31467 -0.00000 0.00000
								CHANNELS 3 Zrotation Yrotation Xrotation
								JOINT LeftFingerBase
								{
									OFFSET 0 0 0
									CHANNELS 3 Zrotation Yrotation Xrotation
									JOINT LeftHandIndex1
									{
										OFFSET 0.96590 -0.00000 0.00000
										CHANNELS 3 Zrotation Yrotation Xrotation
										End Site
										{
											OFFSET 0.77873 -0.00000 0.00000
										}
									}
								}
								JOINT LThumb
								{
									OFFSET 0 0 0
									CHANNELS 3 Zrotation Yrotation Xrotation
									End Site
									{
										OFFSET 0.79062 -0.00000 0.79062
									}
								}
							}
						}
					}
				}
				JOINT RightShoulder
				{
					OFFSET 0 0 0
					CHANNELS 3 Zrotation Yrotation Xrotation
					JOINT RightArm
					{
						OFFSET -3.27193 1.31331 0.33940
						CHANNELS 3 Zrotation Yrotation Xrotation
						JOINT RightForeArm
						{
							OFFSET -5.30252 -0.00000 0.00000
							CHANNELS 3 Zrotation Yrotation Xrotation
							JOINT RightHand
							{
								OFFSET -3.67875 -0.00000 0.00000
								CHANNELS 3 Zrotation Yrotation Xrotation
								JOINT RightFingerBase
								{
									OFFSET 0 0 0
									CHANNELS 3 Zrotation Yrotation Xrotation
									JOINT RightHandIndex1
									{
										OFFSET -0.59481 -0.00000 0.00000
										CHANNELS 3 Zrotation Yrotation Xrotation
										End Site
										{
											OFFSET -0.47955 -0.00000 0.00000
										}
									}
								}
								JOINT RThumb
								{
									OFFSET 0 0 0
									CHANNELS 3 Zrotation Yrotation Xrotation
									End Site
									{
										OFFSET -0.48687 -0.00000 0.48687
									}
								}
							}
						}
					}
				}
			}
		}
	}
}
MOTION
Frames: 10
Frame Time: .0083333
2.5962 27.9188 -35.8421 0 0 0 0 0 0 -21 0 0 0 0 0 0 0 0 0 0 0 0 0 0 21 0 0 0 0 0 0 0 0 0 0 0 0 0 0 0 0 0 0 0 0 0 0 -16 0 0 21 0 0 11 0 0 0 -8 0 0 0 0 0 0 0 0 0 0 0 0 0 0 0 0 0 0 0 0 8 0 0 0 0 0 0 0 0 0 0 0 0 0 0 0 0 0
2.5962 27.9188 -35.8421 -3.5530 7.3758 5.8257 0.0000 0.0000 0.0000 -8.2337 -5.8108 -7.3524 0.7024 5.3568 14.9291 -0.3156 -11.3303 -1.7282 2.5220 9.8777 28.5816 0.0000 0.0000 0.0000 27.5007 1.5519 -4.1975 -0.2262 -3.0616 8.4502 -1.0845 -3.8785 -21.4279 -0.0004 -0.1335 0.3668 -1.4918 -1.9952 -0.4950 -0.5046 -2.6084 3.1842 0.2203 -1.3341 3.5940 -7.6042 -9.6384 1.0661 8.0721 -13.0679 1.5794 3.7148 -6.5539 1.4598 -0.0000 -0.0000 0.0000 -80.4747 -5.1441 24.8268 12.9520 -21.2168 -2.4359 -0.0000 0.0000 -8.6228 17.5910 -14.0075 -4.3883 -7.1250 0.0000 -0.0000 -6.7231 15.3826 4.7320 -0.0000 -0.0000 0.0000 83.8673 -8.6215 30.3418 -15.8550 25.3236 -3.5837 0.0000 0.0000 8.1777 5.8369 -21.5068 -2.1463 7.1250 -0.0000 -0.0000 33.0553 -48.4404 -3.1245
2.5757 27.9221 -35.8702 -3.7565 7.3338 6.1136 0.0000 0.0000 0.0000 -7.5507 -5.4970 -8.5102 0.7836 5.6513 15.7761 -0.3031 -10.9534 -1.4056 2.5183 9.8711 28.5604 0.0000 0.0000 0.0000 28.0971 1.9927 -4.3200 -0.2095 -2.9469 8.1310 -1.0049 -5.2187 -21.5073 -0.0289 1.0966 -3.0146 -1.4021 -1.8924 -0.3955 -0.4241 -2.4800 2.9745 0.2665 -1.2671 3.3180 -7.6643 -9.6949 1.4369 8.2740 -13.1663 1.4523 3.8146 -6.6112 1.3825 -0.0000 0.0000 0.0000 -80.4664 -4.8835 24.9365 13.1761 -21.5448 -2.5176 -0.0000 0.0000 -8.9385 17.6435 -13.5929 -4.2749 -7.1250 0.0000 -0.0000 -6.6791 15.8070 4.6392 -0.0000 0.0000 0.0000 84.0439 -8.5133 29.5325 -15.5352 24.8863 -3.4480 0.0000 0.0000 8.7924 5.6666 -21.0512 -2.0413 7.1250 -0.0000 -0.0000 32.6457 -48.0776 -2.7565
2.5626 27.9232 -35.8909 -3.7654 7.3213 6.3514 0.0000 0.0000 0.0000 -7.2339 -5.2417 -9.3801 0.8496 5.8786 16.4327 -0.2912 -10.6362 -1.1744 2.4045 9.6621 27.8892 0.0000 0.0000 0.0000 28.3977 2.2038 -4.3459 -0.1921 -2.8223 7.7845 -0.9385 -6.2030 -21.5560 -0.0923 1.9596 -5.3939 -1.4531 -1.8132 -0.3080 -0.3898 -2.3775 2.8172 0.3403 -1.2164 3.1080 -7.7173 -9.7526 1.6297 8.3486 -13.2586 1.4693 3.8563 -6.6615 1.3726 -0.0000 0.0000 0.0000 -80.5094 -4.7098 25.1068 13.2991 -21.7239 -2.5629 -0.0000 0.0000 -9.1342 17.8425 -13.2119 -4.2075 -7.1250 0.0000 -0.0000 -6.5356 16.1846 4.4845 -0.0000 0.0000 0.0000 84.0945 -8.4419 28.9313 -15.3334 24.6085 -3.3636 0.0000 0.0000 9.1125 5.4681 -21.0141 -1.9661 7.1250 -0.0000 -0.0000 32.4536 -48.0742 -2.7336
2.5619 27.9192 -35.9070 -3.4979 7.6647 6.6516 0.0000 0.0000 0.0000 -7.4493 -5.3741 -10.2936 0.9349 6.1592 17.2469 -0.2910 -10.4435 -0.7731 2.4242 9.6987 28.0064 0.0000 0.0000 0.0000 28.2352 1.9536 -4.4679 -0.1694 -2.6512 7.3092 -0.8363 -6.9950 -21.1844 -0.0683 1.6860 -4.6386 -1.6118 -1.8558 -0.4314 -0.4242 -2.4284 2.7548 0.3889 -1.2449 3.1194 -7.6407 -9.9094 1.3777 8.1309 -13.4626 1.8052 3.7358 -6.7565 1.5211 0.0000 -0.0000 0.0000 -80.5611 -4.7503 25.4379 13.3306 -21.7697 -2.5746 -0.0000 0.0000 -9.3640 17.9460 -13.2219 -4.2367 -7.1250 0.0000 -0.0000 -6.4644 16.1651 4.4377 0.0000 -0.0000 0.0000 84.1082 -8.3585 28.4083 -15.2943 24.5546 -3.3473 0.0000 0.0000 9.1719 5.5605 -21.5464 -2.0477 7.1250 -0.0000 -0.0000 32.8398 -48.5141 -3.1650
2.5566 27.9172 -35.9260 -3.3924 7.9449 6.9696 0.0000 0.0000 0.0000 -7.3794 -5.4651 -11.2967 1.0281 6.4497 18.0949 -0.2859 -10.2183 -0.4563 2.4258 9.7017 28.0160 0.0000 0.0000 0.0000 28.3077 1.9790 -4.5915 -0.1504 -2.4987 6.8861 -0.7426 -7.8733 -20.9849 -0.0621 1.6074 -4.4219 -1.6525 -1.8744 -0.5102 -0.4148 -2.4524 2.6396 0.4202 -1.2570 3.0475 -7.6179 -10.0161 1.3108 8.0297 -13.6071 1.9975 3.6819 -6.8266 1.5983 0.0000 0.0000 0.0000 -80.6001 -4.6865 25.7072 13.4327 -21.9179 -2.6126 -0.0000 0.0000 -9.5761 17.9847 -13.1183 -4.2138 -7.1250 0.0000 -0.0000 -6.4358 16.2692 4.4033 0.0000 0.0000 0.0000 84.1512 -8.2874 27.8452 -15.2082 24.4354 -3.3116 0.0000 0.0000 9.3045 5.4814 -21.8423 -2.0447 7.1250 -0.0000 -0.0000 32.9450 -48.7769 -3.4115
2.5551 27.9155 -35.9424 -3.2753 8.2898 7.2784 0.0000 0.0000 0.0000 -7.3687 -5.6544 -12.2712 1.1285 6.7474 18.9692 -0.2827 -10.0421 -0.1517 2.4652 9.7744 28.2492 0.0000 0.0000 0.0000 28.3247 1.9802 -4.6915 -0.1321 -2.3429 6.4542 -0.6619 -8.6026 -20.8209 -0.0408 1.3035 -3.5843 -1.6611 -1.9157 -0.6020 -0.4041 -2.5069 2.5310 0.4333 -1.2837 2.9892 -7.6064 -10.1095 1.2103 7.9043 -13.7316 2.2073 3.6202 -6.8861 1.6842 0.0000 -0.0000 0.0000 -80.6485 -4.6337 26.0092 13.5228 -22.0484 -2.6463 -0.0000 0.0000 -9.7498 17.9457 -13.0750 -4.1905 -7.1250 0.0000 -0.0000 -6.4620 16.3175 4.4146 0.0000 -0.0000 0.0000 84.1624 -8.2659 27.3627 -15.1856 24.4040 -3.3022 0.0000 0.0000 9.2981 5.3595 -22.2520 -2.0346 7.1250 -0.0000 -0.0000 33.0829 -49.1424 -3.7552
2.5572 27.9148 -35.9558 -3.1735 8.6506 7.5507 0.0000 0.0000 0.0000 -7.3818 -5.8897 -13.1863 1.2350 7.0474 19.8560 -0.2819 -9.9276 0.1206 2.5321 9.8960 28.6405 0.0000 0.0000 0.0000 28.3202 1.9848 -4.7389 -0.1153 -2.1893 6.0292 -0.6021 -9.1741 -20.7445 -0.0217 0.9518 -2.6161 -1.6209 -1.9631 -0.6809 -0.3894 -2.5711 2.4288 0.4231 -1.3141 2.9284 -7.6181 -10.1806 1.1327 7.8010 -13.8261 2.3755 3.5739 -6.9316 1.7534 0.0000 0.0000 0.0000 -80.7008 -4.5743 26.3335 13.6053 -22.1677 -2.6774 -0.0000 0.0000 -9.8824 17.8335 -13.0634 -4.1590 -7.1250 0.0000 -0.0000 -6.5392 16.3392 4.4649 0.0000 0.0000 0.0000 84.1452 -8.3035 26.9675 -15.2184 24.4495 -3.3158 0.0000 0.0000 9.1702 5.1932 -22.7148 -2.0100 7.1250 -0.0000 -0.0000 33.2186 -49.5593 -4.1467
2.5624 27.9156 -35.9659 -3.1074 8.9607 7.7612 0.0000 0.0000 0.0000 -7.3977 -6.0974 -14.0005 1.3431 7.3376 20.7195 -0.2838 -9.8866 0.3405 2.6041 10.0248 29.0570 0.0000 0.0000 0.0000 28.3207 2.0003 -4.7188 -0.1009 -2.0480 5.6384 -0.5636 -9.5856 -20.7481 -0.0116 0.6941 -1.9074 -1.5222 -1.9919 -0.7354 -0.3738 -2.6120 2.3426 0.3828 -1.3317 2.8671 -7.6521 -10.2300 1.1120 7.7557 -13.8931 2.4576 3.5580 -6.9647 1.7888 0.0000 0.0000 0.0000 -80.7474 -4.5054 26.6824 13.6846 -22.2820 -2.7074 -0.0000 0.0000 -9.9776 17.6654 -13.0785 -4.1220 -7.1250 0.0000 -0.0000 -6.6554 16.3379 4.5456 0.0000 0.0000 0.0000 84.1121 -8.3745 26.6325 -15.2797 24.5343 -3.3412 0.0000 0.0000 8.9641 4.9760 -23.1611 -1.9613 7.1250 -0.0000 -0.0000 33.3041 -49.9699 -4.5266
2.5709 27.9176 -35.9725 -3.0777 9.1919 7.8969 0.0000 0.0000 0.0000 -7.4222 -6.2442 -14.6796 1.4472 7.6046 21.5195 -0.2893 -9.9307 0.5050 2.6602 10.1235 29.3776 0.0000 0.0000 0.0000 28.3274 2.0227 -4.6210 -0.0888 -1.9221 5.2904 -0.5439 -9.8607 -20.8162 -0.0083 0.5874 -1.6141 -1.3698 -1.9906 -0.7702 -0.3628 -2.6139 2.2861 0.3090 -1.3290 2.8219 -7.6966 -10.2682 1.1512 7.7772 -13.9465 2.4374 3.5732 -6.9924 1.7853 0.0000 -0.0000 0.0000 -80.7826 -4.4349 27.0580 13.7653 -22.3982 -2.7381 -0.0000 0.0000 -10.0448 17.4426 -13.1389 -4.0852 -7.1250 0.0000 -0.0000 -6.8099 16.2943 4.6591 0.0000 -0.0000 0.0000 84.0735 -8.4445 26.3225 -15.3378 24.6146 -3.3654 0.0000 0.0000 8.7263 4.7260 -23.5277 -1.8902 7.1250 -0.0000 -0.0000 33.3144 -50.3185 -4.8387
